<?xml version="1.0" standalone="no"?>
<!DOCTYPE svg PUBLIC "-//W3C//DTD SVG 20010904//EN"
 "http://www.w3.org/TR/2001/REC-SVG-20010904/DTD/svg10.dtd">
<svg version="1.0" xmlns="http://www.w3.org/2000/svg"
 width="2542.000000pt" height="2543.000000pt" viewBox="0 0 2542.000000 2543.000000"
 preserveAspectRatio="xMidYMid meet">

<g transform="translate(0.000000,2543.000000) scale(0.100000,-0.100000)"
fill="#000000" stroke="none">
<path d="M12245 23720 c-2455 -116 -4704 -987 -6576 -2546 -549 -457 -1099
-1020 -1544 -1578 -1201 -1508 -1981 -3284 -2269 -5171 -97 -634 -132 -1158
-123 -1840 8 -619 50 -1090 148 -1680 460 -2755 1987 -5260 4234 -6946 1306
-980 2784 -1648 4368 -1974 493 -102 942 -163 1512 -206 229 -17 962 -23 1225
-10 1559 78 2982 444 4355 1121 769 379 1512 863 2173 1415 456 380 911 829
1301 1283 1989 2315 2918 5333 2580 8382 -256 2315 -1252 4493 -2844 6220
-183 199 -569 579 -755 744 -1138 1012 -2412 1752 -3830 2227 -923 309 -1825
483 -2840 549 -223 14 -893 20 -1115 10z m-5285 -3560 c1073 -39 1995 -205
2741 -495 215 -84 210 -81 252 -177 107 -252 181 -553 219 -893 21 -188 18
-844 -5 -1060 -48 -458 -136 -925 -252 -1339 -84 -299 -110 -356 -164 -356
-34 0 -44 11 -106 120 -124 219 -533 857 -768 1200 -608 888 -1134 1539 -1686
2090 -315 314 -534 503 -812 701 -165 117 -178 134 -140 180 20 25 46 27 391
37 30 1 179 -3 330 -8z m3816 -384 c919 -189 1805 -592 2600 -1184 190 -141
354 -275 524 -427 187 -167 386 -362 410 -401 26 -42 36 -125 21 -181 -17 -62
-86 -146 -216 -263 -376 -337 -796 -623 -1342 -914 -711 -379 -1702 -749
-2584 -965 -260 -64 -292 -68 -324 -47 -42 28 -34 67 41 191 139 232 234 446
338 763 141 434 260 995 315 1487 35 312 44 513 38 892 -5 350 -16 508 -53
743 -39 251 -38 246 -25 277 24 59 78 65 257 29z m-4786 -239 c563 -220 1113
-598 1484 -1021 l56 -64 -14 -63 c-26 -113 -75 -409 -101 -609 -116 -911 -100
-1776 46 -2530 88 -453 214 -834 403 -1216 107 -219 113 -236 90 -271 -14 -22
-21 -25 -55 -20 -55 7 -117 58 -295 239 -614 626 -1143 1520 -1470 2482 -226
664 -356 1333 -405 2076 -13 203 -16 776 -5 962 l8 126 51 -15 c29 -8 122 -42
207 -76z m13621 -117 c155 -47 273 -171 314 -325 86 -332 -211 -644 -547 -574
-120 25 -240 112 -305 220 -67 113 -81 278 -34 401 87 226 341 350 572 278z
m-4332 -1974 c9 -10 2 -56 -29 -192 -40 -181 -90 -442 -90 -471 0 -19 -19 -25
270 81 993 364 1855 566 2420 566 484 0 735 -137 733 -400 -2 -339 -406 -917
-1005 -1439 -60 -51 -108 -99 -108 -105 1 -6 7 -38 15 -71 30 -125 10 -272
-57 -404 -79 -158 -240 -286 -409 -326 -81 -19 -216 -19 -297 0 -61 14 -172
64 -202 90 -13 12 -24 7 -75 -32 -144 -108 -700 -472 -996 -652 l-137 -83 30
-81 c97 -267 230 -527 395 -772 59 -87 68 -112 59 -151 -11 -41 -58 -54 -198
-54 -473 1 -1195 71 -1708 166 l-135 25 -262 -128 c-144 -70 -262 -131 -262
-134 -2 -14 526 -160 798 -220 718 -158 1283 -216 1999 -206 466 7 727 29
1145 98 135 23 192 28 199 21 23 -23 -237 -263 -494 -455 -500 -373 -1209
-751 -1928 -1027 -310 -120 -385 -142 -485 -147 -114 -6 -182 9 -344 78 -664
280 -1419 766 -1943 1250 -53 49 -101 89 -106 89 -5 0 -65 -23 -133 -51 -947
-389 -1902 -677 -2570 -774 -578 -83 -957 -42 -1133 125 -353 334 187 1109
1462 2098 214 166 540 402 768 555 101 67 183 125 184 128 0 3 -48 43 -107 89
-235 184 -451 389 -478 454 -19 45 -19 60 0 100 23 48 76 72 210 96 1144 200
2433 658 3445 1223 495 276 1098 695 1370 952 108 102 159 127 189 91z m4463
-3037 c28 -34 31 -84 14 -227 -225 -1828 -868 -3116 -1933 -3873 l-83 -59
-157 10 c-813 53 -1592 245 -2177 537 -227 114 -222 96 -49 163 1061 409 2165
1061 2908 1714 578 509 976 1004 1280 1595 27 52 66 112 86 134 32 33 42 38
66 33 15 -4 36 -16 45 -27z m-11822 -4954 l0 -214 -762 -3 c-599 -3 -772 -6
-803 -17 -57 -19 -128 -95 -146 -157 -11 -38 -14 -125 -14 -404 0 -402 3 -425
73 -493 78 -76 26 -72 885 -75 l767 -3 0 -214 0 -215 -772 0 c-938 0 -991 5
-1193 104 -184 91 -294 247 -325 462 -5 38 -10 236 -10 440 0 473 12 555 105
700 101 157 294 260 550 293 39 5 424 9 858 10 l787 1 0 -215z m2440 0 l0
-214 -767 -3 c-859 -3 -807 1 -885 -75 -47 -45 -68 -108 -71 -204 l-2 -74 863
-3 862 -2 0 -215 0 -215 -862 -2 -863 -3 1 -71 c2 -94 25 -161 72 -207 78 -76
26 -72 885 -75 l767 -3 0 -214 0 -215 -772 0 c-502 0 -805 4 -863 11 -293 36
-484 146 -584 337 -74 144 -76 159 -76 657 0 399 2 446 19 510 75 281 283 440
631 484 39 5 424 9 858 10 l787 1 0 -215z m2440 0 l0 -214 -762 -3 c-599 -3
-772 -6 -803 -17 -57 -19 -128 -95 -146 -157 -11 -38 -14 -125 -14 -404 0
-402 3 -425 73 -493 78 -76 26 -72 885 -75 l767 -3 0 -214 0 -215 -772 0
c-502 0 -805 4 -863 11 -332 41 -543 184 -623 424 -38 114 -44 199 -39 620 4
439 7 464 68 589 97 198 294 318 584 355 39 5 424 9 858 10 l787 1 0 -215z
m4590 0 l0 -215 -500 0 -500 0 0 -790 0 -790 -290 0 -290 0 0 790 0 790 -500
0 -500 0 0 215 0 215 1290 0 1290 0 0 -215z m2380 0 l0 -214 -767 -3 c-859 -3
-807 1 -885 -75 -47 -45 -68 -108 -71 -204 l-2 -74 863 -3 862 -2 0 -215 0
-215 -862 -2 -863 -3 2 -74 c3 -96 24 -159 71 -204 78 -76 26 -72 885 -75
l767 -3 0 -214 0 -215 -772 0 c-795 0 -880 3 -1028 41 -95 24 -220 84 -286
138 -100 80 -178 227 -203 381 -14 85 -14 805 0 890 23 147 85 269 183 363 93
89 275 162 461 186 39 5 424 9 858 10 l787 1 0 -215z m-6229 -609 l251 -235
251 235 250 234 254 0 c139 0 253 -2 253 -4 0 -2 -182 -173 -405 -380 l-405
-377 0 -330 0 -329 -200 0 -200 0 -1 333 0 332 -344 320 c-190 176 -373 346
-407 377 l-63 58 258 0 258 0 250 -234z m3252 -1777 c49 -22 61 -86 22 -124
-53 -54 -135 -21 -135 53 0 63 55 97 113 71z m-3618 -33 c33 -8 81 -23 106
-34 l46 -20 -10 -56 c-6 -34 -15 -55 -21 -52 -116 52 -145 59 -247 64 -121 5
-185 -9 -261 -57 -199 -126 -220 -501 -37 -665 77 -69 141 -90 274 -89 65 0
128 6 155 15 l45 14 3 137 3 137 -71 0 -70 0 0 45 0 45 130 0 130 0 0 -215 0
-215 -38 -19 c-61 -31 -150 -51 -258 -58 -180 -11 -324 38 -426 145 -104 109
-144 226 -135 402 13 252 135 415 357 474 71 19 248 20 325 2z m5576 -193 l-3
-83 116 0 c128 0 124 3 110 -70 l-7 -32 -106 3 -106 4 -3 -225 c-3 -253 2
-291 48 -315 29 -15 67 -13 171 11 24 5 27 3 33 -37 5 -30 3 -45 -6 -51 -26
-16 -85 -30 -154 -35 -96 -7 -153 17 -186 79 -22 41 -23 54 -26 306 l-3 262
-55 0 -54 0 0 50 0 49 57 3 58 3 7 50 c20 128 13 116 66 113 l47 -3 -4 -82z
m-4021 -94 c55 -17 115 -75 129 -126 6 -21 11 -134 11 -259 0 -246 3 -259 62
-259 31 0 33 -3 36 -36 3 -34 1 -36 -36 -47 -87 -26 -153 -4 -169 58 l-8 29
-58 -39 c-70 -48 -124 -64 -194 -58 -136 12 -231 146 -192 270 22 69 67 92
267 141 l172 41 0 59 c0 32 -7 71 -15 86 -33 64 -147 79 -270 35 -38 -13 -77
-27 -86 -30 -11 -4 -19 6 -28 36 -7 23 -11 43 -9 45 2 2 26 13 53 25 112 49
234 59 335 29z m848 -6 c51 -27 98 -91 111 -153 6 -29 11 -161 11 -310 l0
-260 -59 0 -60 0 -3 268 c-3 237 -5 271 -22 305 -23 47 -60 67 -125 67 -58 0
-88 -11 -153 -58 l-48 -34 0 -274 0 -274 -65 0 -65 0 2 368 3 367 48 3 c51 3
51 3 62 -61 l6 -38 27 21 c56 43 76 54 126 72 62 23 149 19 204 -9z m719 2
c48 -20 80 -50 106 -100 20 -37 22 -58 25 -283 4 -223 5 -243 22 -252 10 -6
29 -9 42 -7 20 2 23 -3 26 -34 3 -35 2 -36 -43 -49 -82 -23 -147 2 -160 62
l-7 29 -31 -24 c-111 -84 -233 -99 -324 -41 -76 50 -115 143 -93 224 22 83 73
109 323 166 l117 27 0 59 c0 34 -7 72 -16 89 -32 63 -147 77 -269 33 -38 -13
-77 -27 -86 -30 -21 -7 -45 65 -26 82 15 14 118 53 172 64 55 12 177 4 222
-15z m1940 0 c51 -22 82 -52 107 -105 18 -41 21 -68 24 -283 4 -218 6 -238 22
-247 10 -6 29 -9 42 -7 20 2 23 -3 26 -34 3 -35 2 -36 -43 -49 -82 -23 -147 2
-160 60 l-6 29 -61 -40 c-75 -48 -127 -63 -196 -56 -144 15 -238 158 -184 279
28 64 67 84 262 131 l170 41 0 59 c0 33 -7 71 -16 88 -32 63 -147 77 -269 33
-38 -13 -77 -27 -86 -30 -11 -4 -18 5 -27 32 -6 21 -9 41 -5 46 9 15 93 49
158 64 72 16 189 11 242 -11z m1354 0 c25 -8 62 -29 82 -46 82 -68 129 -236
108 -391 -25 -188 -120 -282 -298 -295 -116 -9 -192 16 -264 86 -49 48 -60 66
-79 129 -19 62 -21 89 -17 180 5 124 15 163 60 228 62 93 164 138 292 130 39
-3 91 -12 116 -21z m-5931 -248 c0 -255 1 -265 23 -307 51 -98 162 -105 282
-19 l45 32 0 279 0 278 60 0 60 0 0 -370 0 -370 -44 0 c-43 0 -44 0 -55 45
-12 50 -10 50 -75 3 -55 -40 -137 -62 -203 -55 -112 12 -191 90 -212 211 -12
67 -15 518 -4 529 3 4 33 7 65 7 l58 0 0 -263z m3180 -144 c-1 -434 -7 -531
-37 -571 -40 -53 -69 -67 -154 -71 -73 -3 -79 -2 -79 17 0 11 -3 34 -6 51 l-6
31 55 0 c48 0 58 4 76 26 20 26 21 37 21 425 l0 398 -47 3 c-46 3 -48 4 -51
36 -6 61 -3 62 118 62 l110 0 0 -407z m310 154 c0 -138 4 -268 10 -286 12 -44
65 -98 102 -107 53 -11 115 5 178 47 l60 41 0 279 0 280 61 -3 61 -3 1 -367 2
-368 -47 0 -48 0 -6 40 c-4 22 -10 42 -14 45 -3 2 -29 -12 -56 -31 -179 -127
-388 -54 -423 150 -12 67 -15 518 -4 529 3 4 33 7 65 7 l58 0 0 -253z"/>
<path d="M16876 16995 c-400 -48 -891 -169 -1461 -360 -143 -48 -267 -91 -276
-96 -19 -10 -32 -96 -53 -369 -51 -647 -14 -1225 114 -1769 16 -68 31 -125 34
-128 14 -14 959 622 1075 723 3 3 -5 28 -16 57 -38 95 -44 121 -50 212 -15
256 124 488 358 600 204 97 432 80 613 -44 l45 -31 63 72 c328 376 491 716
438 909 -25 90 -135 168 -295 210 -105 28 -411 35 -589 14z"/>
<path d="M10640 14187 c-1201 -859 -1831 -1572 -1721 -1950 19 -65 95 -148
167 -182 124 -59 188 -69 439 -69 241 0 317 7 605 60 435 80 1053 265 1683
504 l58 22 -85 89 c-192 201 -411 480 -589 749 -180 271 -233 403 -176 438 28
18 41 12 198 -83 410 -248 979 -519 1506 -715 131 -49 142 -52 175 -40 41 15
431 200 443 210 5 4 -34 18 -85 30 -808 197 -1617 537 -2248 946 -80 52 -154
101 -165 109 -19 13 -34 4 -205 -118z"/>
<path d="M14598 6351 c-121 -32 -155 -50 -164 -87 -9 -36 2 -93 23 -117 57
-64 180 -49 266 31 25 24 27 31 27 114 0 105 10 101 -152 59z"/>
<path d="M16150 6351 c-118 -31 -145 -43 -160 -71 -26 -48 2 -134 52 -161 53
-29 148 -6 230 54 27 20 28 24 28 114 0 110 10 106 -150 64z"/>
<path d="M18090 6351 c-118 -31 -145 -43 -160 -71 -25 -48 2 -134 51 -161 37
-19 114 -12 166 16 88 45 91 51 95 154 l3 91 -25 -1 c-14 0 -72 -13 -130 -28z"/>
<path d="M19364 6651 c-81 -38 -118 -117 -119 -256 0 -107 16 -170 58 -220 38
-47 81 -65 152 -65 145 0 212 101 203 307 -5 120 -29 180 -90 221 -54 35 -145
41 -204 13z"/>
</g>
</svg>
